<?xml version="1.0" encoding="UTF-8" standalone="no"?>
<!DOCTYPE svg PUBLIC "-//W3C//DTD SVG 1.1//EN" "http://www.w3.org/Graphics/SVG/1.1/DTD/svg11.dtd">
<svg width="100%" height="100%" viewBox="0 0 760 220" version="1.1" xmlns="http://www.w3.org/2000/svg" xmlns:xlink="http://www.w3.org/1999/xlink" xml:space="preserve" xmlns:serif="http://www.serif.com/" style="fill-rule:evenodd;clip-rule:evenodd;stroke-linejoin:round;stroke-miterlimit:2;">
    <g transform="matrix(1,0,0,1,-20.4633,-196.745)">
        <path d="M638.527,368.973L637.054,353.269C640.24,352.316 643.426,351.495 646.711,350.772C648.945,354.123 652.427,356.225 657.091,356.882C661.065,356.882 664.547,354.714 666.879,351.626C667.536,351.692 668.39,351.889 669.179,352.152L669.179,370.916C659.476,370.23 649.247,369.582 638.527,368.973ZM612.931,367.639L614.652,349.853L604.962,348.144C604.897,348.013 604.831,347.849 604.765,347.717C605.258,345.911 605.521,344.006 605.521,342.035C605.521,337.568 604.174,333.495 601.842,330.374C600.561,328.699 598.951,327.286 597.112,326.334C596.258,323.213 595.502,320.093 594.78,316.972C591.199,316.808 588.374,313.491 588.374,309.45C588.374,305.279 591.364,301.895 595.075,301.895C598.688,302.027 602.762,307.315 601.415,311.881C603.287,319.206 606.473,325.841 609.758,332.411C610.021,336.287 611.302,339.834 613.371,342.593C615.703,345.681 619.185,347.849 623.16,347.849C626.182,347.849 628.908,346.601 631.076,344.63L639.485,346.436C637.021,347.126 633.868,348.013 630.747,349.097L630.945,351.429L632.554,368.64C626.175,368.292 619.633,367.958 612.931,367.639ZM575.838,366.078L574.644,354.451L582.002,353.334C584.137,356.323 587.718,358.327 592.053,358.951C596.028,358.951 599.51,356.783 601.842,353.696C601.875,353.663 601.875,353.63 601.908,353.597L608.214,354.714L606.986,367.361C596.921,366.9 586.526,366.472 575.838,366.078ZM544.65,365.055L541.501,351.561L551.947,349.327C553.951,350.838 556.348,351.758 558.943,351.758C561.637,351.758 564.067,350.772 566.104,349.163L568.206,349.623C568.743,355.036 569.301,360.45 569.864,365.863C561.627,365.573 553.22,365.303 544.65,365.055ZM512.826,364.247L512.826,350.969L514.698,350.575C517.024,353.466 520.394,355.469 524.204,355.469C528.165,355.469 531.654,353.301 533.989,350.214C534.305,349.787 534.488,349.82 535.083,349.984L538.555,364.882C530.121,364.65 521.54,364.438 512.826,364.247ZM592.053,331.031C590.214,331.031 588.473,331.984 586.995,333.954C585.517,335.892 584.498,338.783 584.498,342.035C584.498,345.287 585.517,348.177 586.995,350.115C588.473,352.086 590.214,353.039 592.053,353.039C593.893,353.039 595.634,352.086 597.112,350.115C598.59,348.177 599.608,345.287 599.608,342.035C599.608,338.783 598.59,335.892 597.112,333.954C595.634,331.984 593.893,331.031 592.053,331.031ZM657.091,328.962C655.252,328.962 653.511,329.914 652.032,331.885C650.554,333.823 649.536,336.714 649.536,339.965C649.569,343.217 650.554,346.108 652.032,348.046C653.511,350.017 655.252,350.969 657.091,350.969C658.93,350.969 660.671,350.017 662.149,348.046C663.628,346.108 664.646,343.217 664.646,339.965C664.646,336.714 663.628,333.823 662.149,331.885C660.671,329.914 658.93,328.962 657.091,328.962ZM524.204,327.549C522.368,327.549 520.611,328.502 519.146,330.473C517.681,332.411 516.666,335.301 516.666,338.553C516.666,341.805 517.681,344.695 519.146,346.633C520.611,348.604 522.368,349.557 524.204,349.557C526.04,349.557 527.797,348.604 529.262,346.633C530.727,344.695 531.742,341.805 531.742,338.553C531.742,335.301 530.727,332.411 529.262,330.473C527.797,328.502 526.04,327.549 524.204,327.549ZM573.133,328.272C572.575,328.272 571.984,328.37 571.458,328.567C572.049,330.505 572.378,332.641 572.378,334.841C572.378,338.225 571.622,341.345 570.276,344.039L578.947,345.944C578.717,344.695 578.586,343.382 578.586,342.035C578.586,339.374 579.079,336.845 579.933,334.611C579.506,333.297 578.914,332.115 578.192,331.195C576.714,329.224 574.973,328.272 573.133,328.272ZM558.943,323.837C557.104,323.837 555.363,324.79 553.885,326.761C552.407,328.699 551.388,331.589 551.388,334.841C551.388,338.093 552.407,340.984 553.885,342.922C555.363,344.893 557.104,345.845 558.943,345.845C560.783,345.845 562.524,344.893 564.002,342.922C565.48,340.984 566.465,338.093 566.465,334.841C566.465,331.589 565.48,328.699 564.002,326.761C562.524,324.79 560.783,323.837 558.943,323.837ZM541.731,325.053C539.892,325.053 538.138,326.005 536.673,327.976C536.302,328.469 535.96,329.027 535.655,329.619C536.942,332.246 537.655,335.301 537.655,338.553C537.655,340.59 537.379,342.528 536.86,344.334L541.863,345.418L546.56,344.433C546.823,344.104 547.118,343.71 547.315,343.382C546.133,340.852 545.476,337.929 545.476,334.841C545.476,332.345 545.903,329.98 546.658,327.812C545.213,325.973 543.538,325.053 541.731,325.053ZM623.16,319.929C621.32,319.929 619.579,320.881 618.101,322.852C616.623,324.79 615.605,327.681 615.605,330.932C615.605,334.184 616.623,337.075 618.101,339.013C619.579,340.984 621.32,341.936 623.16,341.936C624.999,341.936 626.74,340.984 628.218,339.013C629.696,337.075 630.682,334.184 630.682,330.932C630.682,327.681 629.696,324.79 628.218,322.852C626.74,320.881 624.999,319.929 623.16,319.929ZM644.905,325.611C646.153,325.611 647.368,326.038 648.452,326.958C648.058,327.385 647.664,327.845 647.302,328.305C644.97,331.425 643.624,335.498 643.624,339.965C643.624,340.425 643.656,340.885 643.656,341.312L637.777,340.031C637.514,338.98 637.383,337.83 637.383,336.615C637.383,333.363 638.368,330.473 639.846,328.535C641.324,326.564 643.065,325.611 644.905,325.611ZM534.643,305.246C538.341,305.246 541.337,307.611 541.337,310.501C541.337,312.177 540.319,313.753 538.571,314.739C538.181,316.513 537.767,318.286 537.333,320.06C535.214,320.98 533.365,322.524 531.946,324.396C531.9,324.462 531.857,324.527 531.811,324.593C530.593,323.542 529.21,322.721 527.706,322.228C528.766,319.764 529.745,317.268 530.576,314.673C528.921,313.688 529.105,311.684 529.105,310.042C529.102,307.151 530.944,305.246 534.643,305.246ZM646.547,297.888L639.846,320.947C641.39,320.159 643.098,319.699 644.905,319.699C645.627,319.699 646.35,319.764 647.04,319.896L651.77,299.695L646.547,297.888ZM561.538,246.594L564.199,277.818L559.337,278.672L551.224,248.46L554.18,279.592L549.023,280.578L540.844,250.312L543.834,281.497L538.962,282.351L530.498,252.152L534.196,289.216L549.713,286.424L555.527,318.483C556.611,318.122 557.761,317.925 558.943,317.925C559.83,317.925 560.684,318.024 561.505,318.253L555.56,285.373L571.064,282.581L561.538,246.594ZM596.225,286.786L594.09,297.297L601.678,299.103L605.685,289.381L596.225,286.786ZM651.014,261.46C651.244,261.46 651.441,261.493 651.638,261.493C667.504,262.512 674.434,285.965 653.116,293.914L648.386,292.271C651.113,287.443 657.846,288.198 660.638,278.935C662.708,272.07 644.412,256.698 639.978,276.373C635.313,268.49 644.51,261.526 651.014,261.46ZM619.317,248.328C626.477,267.899 615.178,281.136 607.656,282.877L605.061,282.023C608.608,279.625 609.43,276.34 610.973,273.318C608.543,275.585 608.477,276.702 604.47,278.377L601.119,272.366L600.955,280.643L597.046,279.494C594.188,272.136 591.856,263.037 598.918,257.749C599.641,262.347 598.261,267.833 603.156,270.625C598.59,261.099 605.554,258.833 610.514,255.302C607.459,260.245 606.375,264.712 610.382,266.552C614.619,268.523 618.233,258.143 619.317,248.328Z" style="fill:rgb(53,64,80);fill-opacity:0.7;fill-rule:nonzero;"/>
        <g transform="matrix(0.114116,0,0,0.114116,461.017,312.477)">
            <path d="M195.78,21.25C196.338,24.81 197.18,28.276 198.28,31.625C187.786,39.555 180.97,52.107 180.97,66.188C180.97,90.022 200.51,109.562 224.344,109.562C245.512,109.562 263.261,94.145 266.969,74C292.931,69.418 313.275,47.98 317.405,21.25L298.405,21.25C294.068,41.46 276.952,56.25 256.593,56.25C236.233,56.25 219.117,41.46 214.78,21.25L195.78,21.25ZM370.844,35.188C345.41,35.188 324.594,56.003 324.594,81.438C324.594,100.513 336.291,116.984 352.874,124.031C345.764,133.449 341.562,145.165 341.562,157.813C341.562,165.563 343.167,172.958 346.032,179.688C333.462,185.072 324.594,197.598 324.594,212.063C324.594,231.383 340.431,247.22 359.75,247.22C378.434,247.22 393.91,232.418 394.906,213.97C395.861,214.018 396.814,214.03 397.781,214.03C428.718,214.03 454.001,188.75 454.001,157.812C454.001,131.63 435.883,109.497 411.563,103.312C415.093,96.79 417.095,89.336 417.095,81.438C417.095,56.004 396.279,35.188 370.845,35.188L370.844,35.188ZM206.874,48.688C216.409,62.196 230.921,71.725 247.688,74.25C244.388,83.97 235.248,90.875 224.344,90.875C210.61,90.875 199.656,79.922 199.656,66.187C199.656,59.304 202.402,53.137 206.876,48.687L206.874,48.688ZM364.531,54.594C362.801,57.519 361.781,60.917 361.781,64.562C361.781,75.4 370.571,84.188 381.407,84.188C388.221,84.188 394.233,80.71 397.751,75.438C398.171,77.365 398.407,79.376 398.407,81.438C398.407,89.818 394.757,97.276 388.937,102.312C382.163,103.394 375.783,105.682 370.032,108.969C355.082,108.546 343.282,96.499 343.282,81.437C343.282,68.274 352.284,57.409 364.532,54.593L364.531,54.594ZM287.221,108.406C267.901,108.406 252.031,124.274 252.031,143.594C252.031,162.914 267.901,178.781 287.221,178.781C306.539,178.781 322.407,162.914 322.407,143.595C322.407,124.275 306.539,108.407 287.22,108.407L287.221,108.406ZM397.781,120.281C401.759,120.281 405.569,120.903 409.157,122.031C400.187,125.219 393.751,133.781 393.751,143.845C393.751,156.625 404.127,166.97 416.907,166.97C424.424,166.97 431.087,163.396 435.313,157.844C435.297,178.664 418.608,195.344 397.783,195.344C395.188,195.344 392.661,195.087 390.22,194.594C385.073,185.696 376.17,179.218 365.72,177.406C362.247,171.712 360.25,165.016 360.25,157.812C360.25,145.256 366.31,134.207 375.688,127.406C383.003,126.636 389.808,124.146 395.718,120.344C396.403,120.307 397.088,120.281 397.781,120.281ZM287.221,127.126C296.438,127.126 303.721,134.376 303.721,143.596C303.721,152.814 296.439,160.096 287.221,160.096C278.001,160.096 270.721,152.814 270.721,143.596C270.721,134.376 278.001,127.126 287.221,127.126ZM193.936,154.5C165.402,154.5 142.061,177.84 142.061,206.375C142.061,233.657 163.405,256.139 190.218,258.063C180.54,275.515 174.748,297.13 174.748,320.563C174.746,350.973 184.354,378.718 199.592,397.813L209.622,410.375L193.748,412.875C161.801,417.903 139.336,435.216 126.051,448.827C126.051,448.827 376.421,454.478 377.434,453.066C388.5,437.647 345.064,419.45 315.938,413.968L300.344,411.028L310.5,398.842C326.49,379.577 336.97,351.658 336.97,320.562C336.97,290.58 327.41,263.597 312.47,244.467C297.527,225.335 277.62,214.153 255.844,214.153C252.194,214.153 248.594,214.477 245.064,215.091C245.548,212.251 245.814,209.344 245.814,206.371C245.814,177.837 222.474,154.497 193.938,154.497L193.936,154.5ZM184.78,174.438C183.033,177.693 182.03,181.42 182.03,185.375C182.03,198.155 192.407,208.5 205.187,208.5C214.024,208.5 221.695,203.562 225.594,196.28C226.594,199.46 227.124,202.85 227.124,206.375C227.124,212.712 225.381,218.613 222.344,223.625C216.179,227.311 210.416,232.03 205.124,237.625C201.638,238.855 197.867,239.531 193.938,239.531C175.503,239.531 160.781,224.811 160.781,206.376C160.781,191.124 170.865,178.381 184.781,174.438L184.78,174.438ZM356.53,195.875C361.96,201.752 368.592,206.473 376.063,209.625C376.177,210.42 376.25,211.232 376.25,212.063C376.25,221.281 368.97,228.531 359.75,228.531C350.53,228.531 343.28,221.281 343.28,212.063C343.28,203.951 348.903,197.347 356.53,195.876L356.53,195.875ZM224.47,266.75C229.413,266.822 233.665,268.78 235.813,272.5C239.631,279.113 235.323,288.756 226.188,294.03C217.051,299.306 206.568,298.238 202.75,291.625C198.933,285.013 203.24,275.369 212.375,270.095C216.372,267.785 220.623,266.695 224.469,266.75L224.47,266.75ZM285.28,266.75C289.127,266.694 293.41,267.786 297.406,270.094C306.542,275.369 310.849,285.014 307.031,291.624C303.214,298.238 292.701,299.306 283.564,294.031C274.427,288.757 270.12,279.114 273.939,272.501C276.086,268.781 280.339,266.823 285.282,266.751L285.28,266.75ZM254.72,325.72C277.62,325.64 300.34,339.807 309.03,368.47C272.114,344.816 237.443,344.317 199.406,368.47C208.756,340.12 231.818,325.797 254.719,325.72L254.72,325.72Z" style="fill:rgb(53,64,80);fill-rule:nonzero;"/>
        </g>
        <g transform="matrix(1.1524,0,0,2.37931,-122.808,-531.719)">
            <ellipse cx="453.668" cy="387.259" rx="329.344" ry="11.197" style="fill:rgb(34,39,47);"/>
        </g>
        <g transform="matrix(0.40265,0,0,0.40265,56.7389,189.282)">
            <path d="M255.672,18.535C184.472,18.535 128.424,65.635 128.424,120.775C128.424,146.445 140.432,170.008 160.611,188.227L163.536,190.865L165.676,246.495L223.044,215.469L256.931,269.804L290.231,216.061L345.534,246.333L347.132,191.489L350.158,188.809C370.824,170.503 382.922,146.842 382.922,120.774C382.922,65.634 326.874,18.534 255.674,18.534L255.672,18.535ZM175.912,107.675C199.278,107.38 234.297,126.197 234.297,126.197C234.297,147.969 216.649,165.619 194.875,165.619C173.101,165.619 155.451,147.969 155.451,126.196L155.454,126.196C155.87,112.518 164.502,107.816 175.914,107.673L175.912,107.675ZM335.428,107.675C346.838,107.817 355.471,112.519 355.888,126.197C355.888,147.969 338.238,165.621 316.465,165.621C294.693,165.621 277.043,147.971 277.043,126.198C277.043,126.198 312.063,107.381 335.428,107.675ZM255.672,155.793L276.006,201.211L235.336,201.211L255.672,155.794L255.672,155.793ZM216.48,240.263L194.28,252.271C201.103,287.371 197.05,319.104 176.324,351.204C158.467,378.848 112.974,400.211 80.644,379.882C40.628,354.732 69.034,316.286 93.364,339.902C91.851,287.386 44.531,292.032 29.971,323.824C-10.531,412.241 125.478,473.672 200.403,406.614C201.211,448.541 224.275,485.307 273.399,491.309C313.199,496.171 346.169,452.724 295.763,419.703C304.229,457.663 249.607,462.326 249.056,408.123C248.843,387.169 259.766,369.011 275.346,355.669C282.789,369.565 292.214,383.307 303.962,396.747C376,479.168 526.48,416.23 484.147,323.822C469.587,292.032 422.267,287.384 420.753,339.9C445.083,316.284 473.49,354.73 433.476,379.88C401.144,400.21 355.651,378.847 337.794,351.203C317.301,319.463 313.116,288.083 319.618,253.453L296.79,240.957L256.982,305.205L216.48,240.265L216.48,240.263Z" style="fill:rgb(97,90,101);fill-rule:nonzero;"/>
        </g>
        <g transform="matrix(0.0942087,0,0,0.0942087,248.802,339.198)">
            <path d="M118.1,20.63L115.2,40.82L62.09,38.34L111.1,69.94L96.24,174.2C86.059,178.726 79.457,188.859 79.43,200C79.438,208.321 83.114,216.23 89.47,221.6L82.92,267.5L103.7,269.9L116.1,227C117.156,226.661 118.191,226.26 119.2,225.8L180.3,254.7L229.4,223.8L255.4,284.9L182.4,364.2L193.6,442.9L155,491.4L203.5,491.4L223.1,445L211.2,376.2L254.7,355.1L261,404.3L317.2,406.4L320,359.3L385.3,394.4L388.8,445.7L378.6,491.4L440.8,491.4L410.6,445.7L405,377.6L324.9,296.8L351.6,214.7L413.4,235.7L386.2,261C383.974,260.459 381.691,260.191 379.4,260.2C363.877,260.205 351.105,272.977 351.1,288.5C351.105,304.023 363.877,316.795 379.4,316.8C394.923,316.795 407.695,304.023 407.7,288.5C407.712,285.372 407.205,282.263 406.2,279.3L449.9,230.1L333,155.3C333.726,150.742 334.095,146.079 334.1,141.4C334.076,134.52 333.265,127.693 331.7,121.2C387.1,108.7 393.4,53.66 347.2,24.02C355.8,50.66 369.4,75.11 314.2,88.99C307.384,82.691 299.477,79.33 291.4,79.3C283.042,79.322 274.869,82.911 267.9,89.62C209.7,75.84 223.7,51.05 232.4,24.02C185.4,54.19 192.8,110.7 250.9,122C249.462,128.256 248.72,134.805 248.7,141.4C248.71,148.776 249.624,156.091 251.4,163L178.2,224.5L135.1,207.1C135.699,204.781 136.002,202.395 136,200C135.975,193.288 133.564,186.8 129.2,181.7L171.2,36.52L118.1,20.63ZM280.2,126.5C280.223,126.5 280.247,126.5 280.27,126.5C285.981,126.5 290.684,131.19 290.7,136.9C290.684,142.61 285.981,147.3 280.27,147.3C280.247,147.3 280.223,147.3 280.2,147.3C274.501,147.284 269.816,142.599 269.8,136.9C269.816,131.201 274.501,126.516 280.2,126.5ZM314.7,126.5C314.723,126.5 314.747,126.5 314.77,126.5C320.481,126.5 325.184,131.19 325.2,136.9C325.184,142.61 320.481,147.3 314.77,147.3C314.747,147.3 314.723,147.3 314.7,147.3C309.001,147.284 304.316,142.599 304.3,136.9C304.316,131.201 309.001,126.516 314.7,126.5Z" style="fill:rgb(68,76,76);fill-rule:nonzero;"/>
        </g>
        <g transform="matrix(0.0942087,0,0,0.0942087,285.337,350.151)">
            <path d="M118.1,20.63L115.2,40.82L62.09,38.34L111.1,69.94L96.24,174.2C86.059,178.726 79.457,188.859 79.43,200C79.438,208.321 83.114,216.23 89.47,221.6L82.92,267.5L103.7,269.9L116.1,227C117.156,226.661 118.191,226.26 119.2,225.8L180.3,254.7L229.4,223.8L255.4,284.9L182.4,364.2L193.6,442.9L155,491.4L203.5,491.4L223.1,445L211.2,376.2L254.7,355.1L261,404.3L317.2,406.4L320,359.3L385.3,394.4L388.8,445.7L378.6,491.4L440.8,491.4L410.6,445.7L405,377.6L324.9,296.8L351.6,214.7L413.4,235.7L386.2,261C383.974,260.459 381.691,260.191 379.4,260.2C363.877,260.205 351.105,272.977 351.1,288.5C351.105,304.023 363.877,316.795 379.4,316.8C394.923,316.795 407.695,304.023 407.7,288.5C407.712,285.372 407.205,282.263 406.2,279.3L449.9,230.1L333,155.3C333.726,150.742 334.095,146.079 334.1,141.4C334.076,134.52 333.265,127.693 331.7,121.2C387.1,108.7 393.4,53.66 347.2,24.02C355.8,50.66 369.4,75.11 314.2,88.99C307.384,82.691 299.477,79.33 291.4,79.3C283.042,79.322 274.869,82.911 267.9,89.62C209.7,75.84 223.7,51.05 232.4,24.02C185.4,54.19 192.8,110.7 250.9,122C249.462,128.256 248.72,134.805 248.7,141.4C248.71,148.776 249.624,156.091 251.4,163L178.2,224.5L135.1,207.1C135.699,204.781 136.002,202.395 136,200C135.975,193.288 133.564,186.8 129.2,181.7L171.2,36.52L118.1,20.63ZM280.2,126.5C280.223,126.5 280.247,126.5 280.27,126.5C285.981,126.5 290.684,131.19 290.7,136.9C290.684,142.61 285.981,147.3 280.27,147.3C280.247,147.3 280.223,147.3 280.2,147.3C274.501,147.284 269.816,142.599 269.8,136.9C269.816,131.201 274.501,126.516 280.2,126.5ZM314.7,126.5C314.723,126.5 314.747,126.5 314.77,126.5C320.481,126.5 325.184,131.19 325.2,136.9C325.184,142.61 320.481,147.3 314.77,147.3C314.747,147.3 314.723,147.3 314.7,147.3C309.001,147.284 304.316,142.599 304.3,136.9C304.316,131.201 309.001,126.516 314.7,126.5Z" style="fill:rgb(68,76,76);fill-rule:nonzero;"/>
        </g>
        <g transform="matrix(0.0942087,0,0,0.0942087,205.073,350.151)">
            <path d="M118.1,20.63L115.2,40.82L62.09,38.34L111.1,69.94L96.24,174.2C86.059,178.726 79.457,188.859 79.43,200C79.438,208.321 83.114,216.23 89.47,221.6L82.92,267.5L103.7,269.9L116.1,227C117.156,226.661 118.191,226.26 119.2,225.8L180.3,254.7L229.4,223.8L255.4,284.9L182.4,364.2L193.6,442.9L155,491.4L203.5,491.4L223.1,445L211.2,376.2L254.7,355.1L261,404.3L317.2,406.4L320,359.3L385.3,394.4L388.8,445.7L378.6,491.4L440.8,491.4L410.6,445.7L405,377.6L324.9,296.8L351.6,214.7L413.4,235.7L386.2,261C383.974,260.459 381.691,260.191 379.4,260.2C363.877,260.205 351.105,272.977 351.1,288.5C351.105,304.023 363.877,316.795 379.4,316.8C394.923,316.795 407.695,304.023 407.7,288.5C407.712,285.372 407.205,282.263 406.2,279.3L449.9,230.1L333,155.3C333.726,150.742 334.095,146.079 334.1,141.4C334.076,134.52 333.265,127.693 331.7,121.2C387.1,108.7 393.4,53.66 347.2,24.02C355.8,50.66 369.4,75.11 314.2,88.99C307.384,82.691 299.477,79.33 291.4,79.3C283.042,79.322 274.869,82.911 267.9,89.62C209.7,75.84 223.7,51.05 232.4,24.02C185.4,54.19 192.8,110.7 250.9,122C249.462,128.256 248.72,134.805 248.7,141.4C248.71,148.776 249.624,156.091 251.4,163L178.2,224.5L135.1,207.1C135.699,204.781 136.002,202.395 136,200C135.975,193.288 133.564,186.8 129.2,181.7L171.2,36.52L118.1,20.63ZM280.2,126.5C280.223,126.5 280.247,126.5 280.27,126.5C285.981,126.5 290.684,131.19 290.7,136.9C290.684,142.61 285.981,147.3 280.27,147.3C280.247,147.3 280.223,147.3 280.2,147.3C274.501,147.284 269.816,142.599 269.8,136.9C269.816,131.201 274.501,126.516 280.2,126.5ZM314.7,126.5C314.723,126.5 314.747,126.5 314.77,126.5C320.481,126.5 325.184,131.19 325.2,136.9C325.184,142.61 320.481,147.3 314.77,147.3C314.747,147.3 314.723,147.3 314.7,147.3C309.001,147.284 304.316,142.599 304.3,136.9C304.316,131.201 309.001,126.516 314.7,126.5Z" style="fill:rgb(68,76,76);fill-rule:nonzero;"/>
        </g>
        <g transform="matrix(-0.100374,0,0,0.100374,479.054,351.117)">
            <path d="M281.28,15.28L276.625,22.78L220.345,113.22C213.033,94.715 198.675,82.32 183.219,82.78C182.559,82.8 181.911,82.84 181.249,82.906C160.075,85.046 145.322,110.771 148.311,140.376C149.316,150.324 152.221,159.45 156.405,167.094C111.847,168.282 79.91,178.704 63.593,205.344C83.913,224.43 123.409,228.337 155.437,223.969L160.28,227.093L160.406,227.187L179.312,278.562L126.532,491.28L160.688,491.28L221.813,322.375L332,491.28L365.563,491.28L261.438,292.19L358.594,354.72C358.514,354.982 358.424,355.24 358.344,355.502C358.517,355.3 358.672,355.08 358.844,354.877L365.781,359.347L374.781,365.127L379.314,355.471C411.344,287.071 419.554,220.981 405.157,163.407L429.095,158.595L435.282,182.407L490.69,135.751L416.815,111.438L424.377,140.47L399.814,145.438C381.796,93.172 343.996,49.38 289.033,19.5L281.283,15.28L281.28,15.28ZM284.688,45.187C316.506,75.752 339.348,112.173 353.781,151.281L217.095,172.531C222.291,163.869 225.335,152.674 225.375,140.471L284.689,45.189L284.688,45.187ZM362.188,177.875C375.961,229.515 376.078,284.407 363.75,335.781L250.125,262.657L246,200.937L362.188,177.877L362.188,177.875Z" style="fill:rgb(137,148,148);fill-rule:nonzero;"/>
        </g>
        <g transform="matrix(-0.129204,0,0,0.129204,653.856,317.892)">
            <path d="M192.83,24.426C178.12,26.114 165.428,32.756 154.687,41.863C175.917,54.9 196.731,72.761 215.859,91.564C227.586,103.092 238.641,114.984 248.675,126.369C251.117,122.106 253.619,117.743 256.207,113.277C251.898,75.023 221.595,26.067 192.83,24.426ZM71.886,46.303C43.276,64.753 31.683,86.298 29.281,109.701C29.131,184.244 92.968,261.774 151.736,288.856C123.461,301.073 91.103,321.456 75.275,344.836C63.888,363.868 65.241,376.57 82.347,384.976C116.404,401.258 149.937,393.097 178.533,377.191C171.189,373.667 163.728,369.949 156.171,366.229C201.051,355.602 223.056,320.903 247.968,290.484C248.027,284.048 248.472,277.157 249.293,269.982C247.494,270.61 245.656,271.119 243.791,271.506C236.887,280.84 228.957,289.246 219.728,296.006C221.868,306.722 216.684,318.636 207.25,326.206C194.626,336.332 176.063,337.347 166.107,324.938C156.151,312.528 161.167,294.628 173.791,284.5C184.428,275.965 199.283,273.903 209.652,280.893C213.343,278.091 216.828,274.92 220.13,271.453C200.96,265.521 168.756,255.515 163.312,236.613C161.97,231.701 164.122,224.556 168.531,221.205C205.633,193.009 223.314,169.058 239.136,142.727C228.479,130.462 216.351,117.288 203.24,104.4C170.56,73.42 110.442,23.344 71.886,46.303ZM453.341,47.645L438.308,71.58L410.778,65.174L428.898,86.867L414.3,111.068L440.529,100.541L459.037,121.902L457.129,93.703L483.164,82.705L455.755,75.805L453.341,47.645ZM286.636,97.768C254.755,147.512 243.13,186.211 181.951,233.538C195.794,246.132 215.653,254.581 233.425,254.602C241.912,254.514 247.597,252.296 251.05,247.543C262.53,231.743 266.706,207.937 272.435,184.725C278.165,161.512 286.366,137.423 310.06,126.67C330.16,120.735 348.719,129.406 365.203,138.27C366.732,134.15 367.666,129.39 367.568,124.576C366.411,90.071 299.185,83.978 286.636,97.768ZM426.42,120.057L406.37,194.037C412.668,193.617 418.948,195.399 423.709,198.871L443.793,124.764L426.42,120.057ZM317.498,143.06C302.979,149.648 296.518,164.137 291.338,183.509C294.819,190.608 300.226,195.885 306.804,198.157C322.335,203.521 342.438,191.512 350.021,168.122C351.804,162.622 352.657,157.197 352.732,152.042C343.126,146.794 326.778,139.042 317.498,143.06ZM285.972,206.062C282.707,220.26 278.889,235.072 271.683,248.425C268.982,260.828 267.278,272.874 266.597,283.438C279.636,290.586 295.907,294.199 309.539,291.884C321.87,280.034 338.223,263.936 337.475,247.951C336.922,239.254 332.469,227.785 330.004,214.931C312.796,219.493 298.313,217.361 285.972,206.061L285.972,206.062ZM396.408,222.509C394.141,230.442 397.818,236.659 402.455,237.799C407.092,238.94 413.608,235.231 415.875,227.298C418.142,219.364 414.463,213.146 409.825,212.005C403.317,211.1 397.625,218.559 396.408,222.509ZM388.824,251.112C385.371,260.917 381.509,270.172 374.344,279.417C367.505,272.668 361.432,264.87 356.076,256.577C354.979,264.202 351.322,270.643 347.558,276.063C356.726,287.952 364.986,295.607 375.788,304.558C390.045,290.798 400.558,272.328 406.375,255.733C399.995,256.249 393.701,254.58 388.824,251.113L388.824,251.112ZM185.054,298.538C178.465,303.824 177.844,310.804 180.146,313.673C182.448,316.542 189.397,317.449 195.986,312.163C202.575,306.877 203.194,299.897 200.892,297.028C195.949,292.928 189.061,295.398 185.054,298.538ZM262.349,301.508C247.445,319.698 230.454,347.458 198.369,366.563C239.496,385.158 276.669,395.584 302.832,395.292C308.422,366.899 311.594,338.347 304.599,310.487C289.344,310.912 275.225,307.92 262.349,301.509L262.349,301.508ZM220.343,395.398C214.623,404.414 207.811,413.123 199.859,421.321C192.367,417.064 184.742,412.722 176.877,408.794L168.834,424.897C174.366,427.661 179.999,430.907 185.761,434.294C167.473,449.321 144.597,461.889 116.732,470.372L121.974,487.592C154.539,477.679 181.221,462.338 202.213,443.832C224.878,454.142 244.503,462.206 265.33,460.888C279.073,447.98 287.545,429.423 292.568,413.226C286.602,412.836 280.391,412.054 273.97,410.919C269.91,422.794 264.859,435.061 257.515,443.171C243.668,443.111 230.035,437.574 216.078,430.276C224.456,421.185 231.648,411.54 237.673,401.558C231.848,399.643 226.07,397.589 220.343,395.398Z" style="fill:rgb(89,137,137);fill-rule:nonzero;"/>
        </g>
        <path d="M700.594,373.431L698.958,349.51C698.958,349.51 694.333,365.698 692.02,365.698C689.708,365.698 685.083,347.197 685.083,347.197L676.41,349.51L676.41,346.33C676.41,344.885 685.083,342.572 687.395,342.572C689.708,347.197 692.02,354.135 692.02,356.448C692.02,356.448 694.333,335.634 698.958,335.634C698.958,335.634 700.534,335.637 702.677,335.886C702.979,336.569 703.32,337.214 703.701,337.811C705.326,340.365 707.734,342.138 710.521,342.138C713.309,342.138 715.717,340.365 717.342,337.811C717.722,337.214 718.063,336.569 718.366,335.886C720.509,335.637 722.084,335.634 722.084,335.634C726.71,335.634 729.022,356.448 729.022,356.448C729.022,354.135 731.335,347.197 733.647,342.572C735.96,342.572 744.636,344.885 744.632,346.33L744.632,349.51L735.96,347.197C735.96,347.197 731.335,365.698 729.022,365.698C726.71,365.698 722.084,349.51 722.084,349.51L720.314,375.401C714.159,374.723 707.581,374.066 700.594,373.431ZM710.521,316.7C708.839,316.7 707.199,317.774 705.895,319.823C704.591,321.872 703.728,324.83 703.728,328.118C703.728,331.407 704.591,334.365 705.895,336.414C707.199,338.463 708.839,339.537 710.521,339.537C712.204,339.537 713.843,338.463 715.147,336.414C716.451,334.365 717.315,331.407 717.315,328.118C717.315,324.83 716.451,321.872 715.147,319.823C713.844,317.774 712.204,316.7 710.521,316.7Z" style="fill:rgb(53,64,80);fill-opacity:0.7;fill-rule:nonzero;"/>
        <g transform="matrix(0.0764883,0,0,0.0764883,547.162,364.106)">
            <path d="M180.75,22.97L163.03,28.938L188.375,104.344L206.095,98.314L180.75,22.969L180.75,22.97ZM254.656,101.53L149.97,137.157L160.125,167.032C168.441,157.282 177.905,149.534 188.25,143.658C195.482,171.152 204.916,197.778 216.063,223.564C229.063,218.004 242.486,213.367 255.969,209.846C249.002,183.119 240.147,156.659 229.624,130.533C240.919,129.293 252.724,129.623 264.844,131.473L254.654,101.533L254.656,101.53ZM446.344,189.75C426.88,189.647 404.064,199.593 385.469,218.188C379.691,223.964 374.785,230.166 370.719,236.531C341.985,219.218 300.953,218.268 260.499,228.563C260.479,228.47 260.459,228.376 260.436,228.283C248.079,231.417 235.71,235.531 223.749,240.595L223.937,241.001C136.609,278.507 72.035,364.991 175.905,443.064L46.03,443.064L17.25,495.03L297.125,495.03L200.845,382.656C227.259,353.589 274.255,335.072 306.405,333.594C321.42,382.674 345.85,457.11 384.47,495L450.72,495C403.84,444.336 367.402,376.266 361.53,299.25C363.29,302.773 365.552,306.02 368.375,308.844C388.687,329.156 429.281,321.501 459.031,291.75C488.783,262 496.438,221.406 476.126,201.094C468.509,193.477 458.023,189.812 446.346,189.75L446.344,189.75Z" style="fill:rgb(136,157,157);fill-rule:nonzero;"/>
        </g>
        <g transform="matrix(-0.0767399,0,0,0.0767399,419.575,345.645)">
            <path d="M296.8,20.89C282.7,20.89 269.7,28.33 259.7,41.52C249.7,54.71 243.2,73.52 243.2,94.48C243.2,115.4 249.7,134.3 259.7,147.4C269.7,160.6 282.7,168.1 296.8,168.1C310.9,168.1 323.9,160.6 333.9,147.4C342.8,135.7 348.9,119.4 350.2,101.2C344.8,101.2 339.2,99.9 334.3,95.7C336.1,84.42 341.5,77.21 347.5,70.74C344.7,59.47 339.9,49.47 333.9,41.52C323.9,28.33 310.9,20.89 296.8,20.89ZM233.2,52.16C210.2,53.35 183.2,56.76 170.3,63.94C72.22,133.3 47.78,244.5 48.84,354C43.09,390.3 42.79,404.8 57.78,436.4C69.2,460.5 102,449.7 109.7,427.5C89.39,407.3 87.27,401.2 87.82,374L107.2,402.5L119.7,394.1C117,372.8 104.2,354.2 90.27,335.7C91.73,281.8 98.36,246.9 131.5,207.5L146.5,212.1L134.2,335.6C184,344.7 239.4,348 279.6,339.8L276.6,244.5C313.8,279.9 327.3,330.7 352.5,374C356.6,393.7 366.3,416 376.8,420.3C412,434.8 438.4,385.7 411.2,365.1L466.8,177.2L439.5,75.57L382.5,363.6L325,232.8C328.4,213.4 330.6,193.8 331,175C320.9,182 309.3,186.1 296.8,186.1C276.3,186.1 258,175 245.4,158.3C232.7,141.6 225.2,119.1 225.2,94.48C225.2,79.26 228.1,64.87 233.2,52.16ZM274.3,62.72C287.3,67.17 308.7,80.19 317.2,96.4C312.9,107.2 290.1,102.3 279.3,92.21L274.3,62.72ZM133.5,353.7C143.9,396.4 143.6,435.8 131.9,470.1L151.5,491.1L174.1,480.8L170.8,418.6C203.7,384.2 245,367 276.4,419.1C250.8,441.9 253.1,444.4 244.7,476.4L339,477.5C336.3,460.8 305.9,453.7 283,450.4L306.8,428.1L283.2,357.4C239.5,366.6 184.1,362.9 133.5,353.7Z" style="fill:rgb(137,148,148);fill-rule:nonzero;"/>
        </g>
        <g transform="matrix(-0.0897702,0,0,0.0897702,385.142,361.697)">
            <path d="M467.838,35.848C414.63,39.366 366.554,43.939 328.698,86.028C338.567,115.591 354.866,151.912 375.311,181.262C395.815,210.698 420.069,231.852 443.921,234.559C479.186,201.502 497.62,121.96 467.838,35.848ZM189.8,46.02C184.186,46.217 178.797,47.443 173.813,49.658C146.527,61.784 137.078,101.025 152.882,136.586C152.882,136.586 152.882,136.586 152.882,136.586C163.488,160.431 183.367,177.93 204.502,182.029C206.894,239.536 185.074,225.912 133.968,255.635L149.856,287.325C185.422,273.594 201.7,267.622 219.126,243.008C251.712,336.928 217.252,400.244 195.438,490.086L229.149,495.002C252.847,437.755 284.263,372.647 291.587,313.58C340.524,364.714 369.085,428.221 406.237,482.723L442.057,467.973C396.247,387.249 376.424,339.602 291.466,205.783C318.285,205.589 341.292,199.191 362.149,190.361C355.113,180.256 348.584,169.479 342.62,158.475C314.397,170.558 283.592,175.472 252.48,159.33C262.618,140.966 262.573,115.42 252.362,92.375C239.766,64.032 214.299,45.162 189.8,46.02ZM15.47,87.309L18.757,121.399L71.357,229.169L92.925,218.643L40.542,111.318L15.47,87.308L15.47,87.309ZM112.536,226.875L65.78,249.697L68.917,268.193L125.188,240.729L112.536,226.875ZM114.854,263.576L93.286,274.104L109.954,308.254L131.522,297.727L114.854,263.577L114.854,263.576Z" style="fill:rgb(137,148,148);fill-rule:nonzero;"/>
        </g>
    </g>
</svg>
