<?xml version="1.0" encoding="UTF-8" standalone="no"?>
<!DOCTYPE svg PUBLIC "-//W3C//DTD SVG 1.1//EN" "http://www.w3.org/Graphics/SVG/1.1/DTD/svg11.dtd">
<svg width="100%" height="100%" viewBox="0 0 124 176" version="1.1" xmlns="http://www.w3.org/2000/svg" xmlns:xlink="http://www.w3.org/1999/xlink" xml:space="preserve" xmlns:serif="http://www.serif.com/" style="fill-rule:evenodd;clip-rule:evenodd;stroke-linejoin:round;stroke-miterlimit:2;">
    <g transform="matrix(1,0,0,1,-95.9909,-107.418)">
        <g transform="matrix(-0.768891,9.4162e-17,-9.4162e-17,-0.768891,275.255,325.236)">
            <path d="M91.039,191.476L165.751,108.462L163.133,128.965L232.929,54.556L191.706,137.22L233.147,106.467L195.632,183.46L221.805,167.32L173.382,252.299C165.187,270.56 146.843,283.288 125.55,283.288C96.631,283.288 73.153,259.81 73.153,230.891C73.153,219.667 76.689,209.263 82.705,200.736L82.706,200.735C85.11,197.328 87.91,194.22 91.039,191.476ZM125.587,190.076C147.857,190.076 165.938,208.156 165.938,230.426C165.938,252.696 147.857,270.777 125.587,270.777C103.317,270.777 85.237,252.696 85.237,230.426C85.237,208.156 103.317,190.076 125.587,190.076Z"/>
        </g>
    </g>
</svg>
