<?xml version="1.0" encoding="UTF-8" standalone="no"?>
<!DOCTYPE svg PUBLIC "-//W3C//DTD SVG 1.1//EN" "http://www.w3.org/Graphics/SVG/1.1/DTD/svg11.dtd">
<svg width="100%" height="100%" viewBox="0 0 151 148" version="1.1" xmlns="http://www.w3.org/2000/svg" xmlns:xlink="http://www.w3.org/1999/xlink" xml:space="preserve" xmlns:serif="http://www.serif.com/" style="fill-rule:evenodd;clip-rule:evenodd;stroke-linejoin:round;stroke-miterlimit:2;">
    <g transform="matrix(1,0,0,1,-77.9316,-119.696)">
        <g transform="matrix(1.17538,0,0,1.17538,-26.8599,-33.585)">
            <g transform="matrix(0.707107,0.707107,-0.707107,0.707107,180.264,-52.2057)">
                <path d="M166.399,179.196L177.608,179.614C178.234,172.016 180.799,167.437 190.848,167.437L190.848,183.154L223.38,183.743C225.082,182.374 227.245,181.555 229.598,181.555C235.084,181.555 239.537,186.009 239.537,191.495C239.537,196.98 235.084,201.434 229.598,201.434C227.245,201.434 225.082,200.615 223.38,199.246L190.848,199.835L190.848,215.553C189.164,215.55 187.463,215.43 185.842,215.056C184.982,214.857 184.147,214.585 183.376,214.224C182.889,213.996 182.429,213.733 182.004,213.439C181.725,213.245 181.462,213.038 181.216,212.82C179.841,211.599 179.039,210.056 178.531,208.495C178.447,208.236 178.371,207.976 178.301,207.715C178.214,207.389 178.137,207.061 178.069,206.731C177.965,206.23 177.88,205.726 177.809,205.221C177.723,204.608 177.658,203.992 177.608,203.376L165.482,203.827L165.873,193.334L177.615,193.334L177.572,189.385L166.02,189.385L166.399,179.196ZM139.863,178.208L140.279,189.385L94.975,189.385C93.12,190.702 93.09,192.018 94.975,193.334L140.427,193.334L140.851,204.744L86.742,206.759L66.762,191.495L86.742,176.23L139.863,178.208ZM222.711,191.549L222.755,192.281L222.885,193.041L223.096,193.768L223.354,194.404L223.671,195.003L224.086,195.622L224.652,196.286L225.27,196.85L225.975,197.352L226.305,197.543C227.283,198.078 228.405,198.382 229.598,198.382C233.399,198.382 236.485,195.296 236.485,191.495C236.485,187.693 233.399,184.607 229.598,184.607C228.41,184.607 227.292,184.909 226.316,185.439L225.566,185.912L224.919,186.443L224.322,187.07L223.833,187.727L223.481,188.329L223.193,188.959L222.94,189.728L222.785,190.48L222.715,191.259L222.711,191.549Z"/>
            </g>
            <g transform="matrix(0.707107,0.707107,-0.707107,0.707107,180.264,-52.2057)">
                <path d="M141.269,215.953L137.885,125.086L153.15,105.107L168.414,125.086L165.031,215.953C172.628,216.578 177.208,219.144 177.208,229.193L161.49,229.193L160.902,261.724C162.27,263.427 163.089,265.59 163.089,267.943C163.089,273.429 158.635,277.882 153.15,277.882C147.664,277.882 143.21,273.429 143.21,267.943C143.21,265.59 144.03,263.427 145.398,261.724L144.809,229.193L129.092,229.193C129.094,227.509 129.214,225.808 129.589,224.187C129.787,223.326 130.06,222.492 130.42,221.721C130.648,221.234 130.911,220.773 131.206,220.349C131.399,220.07 131.606,219.807 131.825,219.561C133.046,218.186 134.588,217.384 136.149,216.876C136.408,216.792 136.668,216.716 136.929,216.646C137.256,216.559 137.584,216.482 137.913,216.414C138.414,216.309 138.918,216.225 139.423,216.154C140.037,216.068 140.652,216.003 141.269,215.953ZM153.095,261.056L152.363,261.1L151.604,261.23L150.876,261.441L150.241,261.699L149.641,262.016L149.022,262.431L148.359,262.997L147.794,263.614L147.293,264.32L147.101,264.649C146.566,265.628 146.263,266.75 146.263,267.943C146.263,271.744 149.349,274.83 153.15,274.83C156.951,274.83 160.037,271.744 160.037,267.943C160.037,266.755 159.735,265.637 159.205,264.661L158.732,263.911L158.202,263.264L157.574,262.667L156.917,262.178L156.316,261.826L155.686,261.538L154.916,261.285L154.164,261.13L153.385,261.06L153.095,261.056ZM151.31,215.96L151.31,133.32C152.626,131.435 153.943,131.464 155.259,133.32L155.259,215.917L151.31,215.96Z"/>
            </g>
        </g>
    </g>
</svg>
